<svg xmlns="http://www.w3.org/2000/svg" viewBox="-1200 -1000 2400 2000">
  <!-- Simplified outer and inner paths approximating the Interlagos layout -->
  <path id="outer" d="M 1000 -400 Q 800 -900 200 -900 Q -300 -900 -700 -600 Q -1000 -300 -900 100 Q -840 300 -660 460 Q -480 620 -240 680 Q 0 740 240 680 Q 500 600 720 400 Q 940 200 1000 -100 Q 1060 -300 1000 -400 Z" fill="none" stroke="black" stroke-width="5"/>
  <path id="inner" d="M 600 -300 Q 480 -700 120 -700 Q -240 -700 -520 -480 Q -720 -300 -660 -40 Q -600 120 -460 240 Q -320 360 -160 420 Q 0 480 160 420 Q 340 360 480 240 Q 620 120 660 -60 Q 680 -200 600 -300 Z" fill="none" stroke="black" stroke-width="5"/>
  <line id="finish" x1="-200" y1="-900" x2="-200" y2="-700" stroke="black" stroke-width="5"/>
  <rect id="start" x="-210" y="-900" width="20" height="200" fill="none" />
</svg>
